<svg width="24" height="25" viewBox="0 0 24 25" fill="none" xmlns="http://www.w3.org/2000/svg">
<g id="Icon - Buy">
<path id="Vector" fill-rule="evenodd" clip-rule="evenodd" d="M5.54339 20.3636C6.25739 20.3636 6.83839 20.9382 6.83839 21.6455C6.83839 22.3528 6.25739 22.9283 5.54339 22.9283C4.82939 22.9283 4.24939 22.3528 4.24939 21.6455C4.24939 20.9382 4.82939 20.3636 5.54339 20.3636ZM16.8237 20.3636C17.5387 20.3636 18.1197 20.9382 18.1197 21.6455C18.1197 22.3528 17.5387 22.9283 16.8237 22.9283C16.1097 22.9283 15.5297 22.3528 15.5297 21.6455C15.5297 20.9382 16.1097 20.3636 16.8237 20.3636ZM1.26759 3.58008L3.34759 3.9367C3.68259 3.99515 3.93759 4.27054 3.96659 4.60735L4.20159 7.38209L5.07544 7.38246C5.21804 7.38253 5.35912 7.38259 5.49871 7.38265L7.10302 7.38341C7.2309 7.38347 7.35735 7.38353 7.48238 7.3836L9.25378 7.38456C9.36506 7.38462 9.47501 7.38469 9.58364 7.38475L10.825 7.38554C10.9233 7.3856 11.0204 7.38567 11.1163 7.38574L12.2081 7.38653C12.2943 7.3866 12.3793 7.38667 12.4632 7.38673L13.4151 7.38754C13.49 7.38761 13.5638 7.38768 13.6365 7.38775L14.2621 7.38836C14.3285 7.38843 14.3939 7.3885 14.4582 7.38857L15.1828 7.3894C15.2393 7.38947 15.2949 7.38954 15.3495 7.38961L15.9613 7.39046C16.0087 7.39053 16.0552 7.3906 16.1009 7.39067L16.4898 7.39132C16.5305 7.39139 16.5704 7.39146 16.6096 7.39153L17.0427 7.3924C17.0758 7.39248 17.1082 7.39255 17.1399 7.39262L17.4065 7.39328C17.4341 7.39336 17.461 7.39343 17.4873 7.3935L17.773 7.3944C17.7945 7.39447 17.8153 7.39455 17.8356 7.39462L18.0034 7.3953C18.0204 7.39537 18.037 7.39545 18.053 7.39553L18.2227 7.39644C18.2351 7.39652 18.247 7.3966 18.2584 7.39667L18.3509 7.39737C18.3601 7.39745 18.3688 7.39752 18.3772 7.3976L18.4438 7.3983C18.4503 7.39838 18.4564 7.39846 18.4623 7.39854L18.5076 7.39925C18.5118 7.39933 18.5159 7.39941 18.5197 7.39949L18.5483 7.40021C18.5509 7.40029 18.5534 7.40037 18.5557 7.40045L18.5764 7.40142C18.5777 7.4015 18.5789 7.40158 18.58 7.40166C18.5897 7.40256 18.5912 7.40273 18.5926 7.40289C19.1496 7.48313 19.6396 7.77141 19.9736 8.21521C20.3076 8.65801 20.4476 9.20385 20.3676 9.75067L19.4186 16.2472C19.2396 17.4835 18.1556 18.4157 16.8956 18.4157H5.97459C4.65759 18.4157 3.54259 17.3973 3.43559 16.0946L2.51959 5.30277L1.01259 5.04521C0.603593 4.97388 0.330593 4.59051 0.400593 4.18535C0.472593 3.78018 0.867593 3.51668 1.26759 3.58008ZM4.87483 8.86836L4.32759 8.86803L4.93059 15.9728C4.97459 16.5196 5.42559 16.9297 5.97659 16.9297H16.8936C17.4146 16.9297 17.8596 16.5454 17.9336 16.0352L18.8836 9.53769C18.9056 9.38315 18.8666 9.22861 18.7716 9.1038C18.6776 8.97799 18.5396 8.89675 18.3836 8.87496C18.3764 8.87523 18.3591 8.87548 18.3323 8.87571L18.2235 8.87633C18.2008 8.87642 18.1757 8.87651 18.1485 8.87659L17.582 8.87744C17.5342 8.87747 17.4845 8.8775 17.433 8.87753L16.101 8.87747C16.0267 8.87745 15.9509 8.87742 15.8739 8.87738L14.3538 8.87647C14.2627 8.8764 14.1706 8.87633 14.0776 8.87626L13.2175 8.87558C13.1195 8.8755 13.0208 8.87542 12.9214 8.87533L12.0103 8.87454C11.9074 8.87445 11.8041 8.87435 11.7002 8.87426L11.0727 8.87369C10.9674 8.87359 10.8617 8.8735 10.7559 8.8734L9.79819 8.87251C9.6914 8.87241 9.58456 8.87231 9.4777 8.87221L8.83706 8.87162C8.73044 8.87153 8.62395 8.87143 8.51763 8.87133L7.88243 8.87076C7.77709 8.87067 7.67205 8.87058 7.56738 8.87048L6.63687 8.86969C6.53495 8.86961 6.43357 8.86952 6.33281 8.86944L5.15688 8.86856C5.06199 8.86849 4.96795 8.86843 4.87483 8.86836ZM15.2875 11.0437C15.7015 11.0437 16.0375 11.3766 16.0375 11.7867C16.0375 12.1968 15.7015 12.5297 15.2875 12.5297H12.5155C12.1005 12.5297 11.7655 12.1968 11.7655 11.7867C11.7655 11.3766 12.1005 11.0437 12.5155 11.0437H15.2875Z" fill="url(#paint0_linear_8232_579)"/>
</g>
<defs>
<linearGradient id="paint0_linear_8232_579" x1="0.389648" y1="13.2495" x2="20.3896" y2="13.2495" gradientUnits="userSpaceOnUse">
<stop stop-color="#02AAB0"/>
<stop offset="1" stop-color="#00CDAC"/>
</linearGradient>
</defs>
</svg>
